<svg width="25" height="25" viewBox="0 0 25 25" fill="none" xmlns="http://www.w3.org/2000/svg">
<g clip-path="url(#clip0)">
<path d="M19.0094 13.9687C18.1906 15.6281 17.0813 17.2813 15.9469 18.7656C14.8708 20.165 13.7202 21.5055 12.5 22.7812C11.2798 21.5055 10.1292 20.165 9.05313 18.7656C7.91875 17.2813 6.80938 15.6281 5.99063 13.9687C5.1625 12.2922 4.6875 10.7219 4.6875 9.375C4.6875 7.303 5.5106 5.31586 6.97573 3.85073C8.44086 2.3856 10.428 1.5625 12.5 1.5625C14.572 1.5625 16.5591 2.3856 18.0243 3.85073C19.4894 5.31586 20.3125 7.303 20.3125 9.375C20.3125 10.7219 19.8359 12.2922 19.0094 13.9687ZM12.5 25C12.5 25 21.875 16.1156 21.875 9.375C21.875 6.8886 20.8873 4.50403 19.1291 2.74587C17.371 0.98772 14.9864 0 12.5 0C10.0136 0 7.62903 0.98772 5.87087 2.74587C4.11272 4.50403 3.125 6.8886 3.125 9.375C3.125 16.1156 12.5 25 12.5 25Z" fill="#001D2D" fill-opacity="0.68"/>
<path d="M12.5 12.5C11.6712 12.5 10.8763 12.1708 10.2903 11.5847C9.70424 10.9987 9.375 10.2038 9.375 9.375C9.375 8.5462 9.70424 7.75134 10.2903 7.16529C10.8763 6.57924 11.6712 6.25 12.5 6.25C13.3288 6.25 14.1237 6.57924 14.7097 7.16529C15.2958 7.75134 15.625 8.5462 15.625 9.375C15.625 10.2038 15.2958 10.9987 14.7097 11.5847C14.1237 12.1708 13.3288 12.5 12.5 12.5ZM12.5 14.0625C13.7432 14.0625 14.9355 13.5686 15.8146 12.6896C16.6936 11.8105 17.1875 10.6182 17.1875 9.375C17.1875 8.1318 16.6936 6.93951 15.8146 6.06044C14.9355 5.18136 13.7432 4.6875 12.5 4.6875C11.2568 4.6875 10.0645 5.18136 9.18544 6.06044C8.30636 6.93951 7.8125 8.1318 7.8125 9.375C7.8125 10.6182 8.30636 11.8105 9.18544 12.6896C10.0645 13.5686 11.2568 14.0625 12.5 14.0625V14.0625Z" fill="#001D2D" fill-opacity="0.68"/>
</g>
<defs>
<clipPath id="clip0">
<rect width="25" height="25" fill="white"/>
</clipPath>
</defs>
</svg>
