<svg width="470" height="327" viewBox="0 0 470 327" fill="none" xmlns="http://www.w3.org/2000/svg">
<path d="M312.954 163.498C300.57 163.498 288.918 156.941 282.616 146.451L235.496 68.7911L188.449 146.451C182.074 157.014 170.422 163.571 158.038 163.571C154.74 163.571 151.442 163.134 148.291 162.187L47.8959 133.629V263.305C47.8959 274.014 55.224 283.339 65.6299 285.889L224.064 325.301C231.539 327.123 239.38 327.123 246.781 325.301L405.362 285.889C415.768 283.266 423.096 273.941 423.096 263.305V133.629L322.701 162.114C319.549 163.061 316.252 163.498 312.954 163.498ZM468.75 81.7587L431.01 6.86726C428.738 2.35046 423.829 -0.272193 418.772 0.383471L235.496 23.6231L302.695 134.43C305.479 139.02 311.049 141.206 316.252 139.748L461.275 98.5874C468.53 96.4747 472.048 88.461 468.75 81.7587ZM39.9815 6.86726L2.24164 81.7587C-1.1293 88.461 2.46149 96.4747 9.64305 98.5145L154.667 139.676C159.87 141.133 165.439 138.947 168.224 134.357L235.496 23.6231L52.1462 0.383471C47.0898 -0.199342 42.2532 2.35046 39.9815 6.86726Z" fill="#00A3FF" fill-opacity="0.13"/>
</svg>
