<svg width="25" height="25" viewBox="0 0 25 25" fill="none" xmlns="http://www.w3.org/2000/svg">
<path d="M22.6562 3.90625H2.34375C1.91162 3.90625 1.5625 4.25537 1.5625 4.6875V20.3125C1.5625 20.7446 1.91162 21.0938 2.34375 21.0938H22.6562C23.0884 21.0938 23.4375 20.7446 23.4375 20.3125V4.6875C23.4375 4.25537 23.0884 3.90625 22.6562 3.90625ZM21.6797 6.61133V19.3359H3.32031V6.61133L2.64648 6.08643L3.60596 4.85352L4.65088 5.6665H20.3516L21.3965 4.85352L22.356 6.08643L21.6797 6.61133ZM20.3516 5.66406L12.5 11.7676L4.64844 5.66406L3.60352 4.85107L2.64404 6.08398L3.31787 6.60889L11.6577 13.0933C11.8976 13.2796 12.1926 13.3807 12.4963 13.3807C12.8001 13.3807 13.0951 13.2796 13.335 13.0933L21.6797 6.61133L22.3535 6.08643L21.394 4.85352L20.3516 5.66406Z" fill="#939393"/>
</svg>
