<svg width="64" height="64" viewBox="0 0 64 64" fill="none" xmlns="http://www.w3.org/2000/svg">
<path fill-rule="evenodd" clip-rule="evenodd" d="M4 48H16.2V55.78H4V48Z" fill="white"/>
<path fill-rule="evenodd" clip-rule="evenodd" d="M16.6396 48.908L24.7517 25.836L29.4837 27.5L21.3756 50.572L16.6396 48.908Z" fill="white"/>
<path fill-rule="evenodd" clip-rule="evenodd" d="M10.3795 12.868L8.43553 19.524C8.43553 19.524 7.25953 22.62 10.1435 23.58C13.3915 24.572 38.1115 31.916 38.1115 31.916L43.6755 22.396L10.3795 12.868Z" fill="white"/>
<path fill-rule="evenodd" clip-rule="evenodd" d="M54.8356 19.884C55.2556 19.728 63.8316 15.084 63.8316 15.084C63.1836 14.432 62.8036 13.94 61.8516 13.664L16.5796 0.404009C15.8771 0.192989 15.1398 0.122569 14.41 0.196778C13.6802 0.270987 12.9722 0.488369 12.3265 0.836485C11.6808 1.1846 11.11 1.65662 10.6469 2.22554C10.1838 2.79445 9.83747 3.44909 9.62763 4.15201L8.22363 8.94001C8.22363 8.94001 47.0556 20.316 48.2476 20.484L44.1716 27.676L55.9556 31.776L59.9156 20.088C59.9156 20.084 55.4756 20.084 54.8356 19.884Z" fill="white"/>
<path fill-rule="evenodd" clip-rule="evenodd" d="M7.0363 48.716L5.6123 46.6C13.3883 41.808 16.0523 29.016 15.9723 19.516L18.6043 19.492C18.6883 30.116 15.7003 43.376 7.0363 48.716Z" fill="white"/>
<path fill-rule="evenodd" clip-rule="evenodd" d="M8.116 51.984C8.116 58.564 4.484 63.892 0 63.892V40.084C4.484 40.084 8.116 45.412 8.116 51.984Z" fill="white"/>
</svg>
