<svg width="74" height="74" viewBox="0 0 74 74" fill="none" xmlns="http://www.w3.org/2000/svg">
<path d="M33.9163 15.4167C32.6707 10.286 27.7034 6.16669 21.583 6.16669C14.886 6.16669 9.31134 11.6859 9.24967 18.5C9.31134 25.3142 14.886 30.8334 21.583 30.8334H24.6663H21.583C11.445 30.8334 3.08301 39.1152 3.08301 49.3334V55.5M36.9997 40.0834C40.2707 40.0834 43.4077 38.784 45.7207 36.471C48.0336 34.1581 49.333 31.021 49.333 27.75C49.333 24.479 48.0336 21.342 45.7207 19.029C43.4077 16.7161 40.2707 15.4167 36.9997 15.4167C33.7287 15.4167 30.5916 16.7161 28.2787 19.029C25.9657 21.342 24.6663 24.479 24.6663 27.75C24.6663 31.021 25.9657 34.1581 28.2787 36.471C30.5916 38.784 33.7287 40.0834 36.9997 40.0834V40.0834ZM18.4997 67.8334V58.5834C18.4997 53.6769 20.4488 48.9713 23.9182 45.5019C27.3876 42.0325 32.0932 40.0834 36.9997 40.0834C41.9062 40.0834 46.6117 42.0325 50.0811 45.5019C53.5506 48.9713 55.4997 53.6769 55.4997 58.5834V67.8334H18.4997ZM40.083 15.4167C41.3287 10.286 46.2959 6.16669 52.4163 6.16669C59.1133 6.16669 64.688 11.6859 64.7497 18.5C64.688 25.3142 59.1133 30.8334 52.4163 30.8334H49.333H52.4163C62.5543 30.8334 70.9163 39.1152 70.9163 49.3334V55.5L40.083 15.4167Z" stroke="white" stroke-width="4"/>
</svg>
