<svg width="86" height="86" viewBox="0 0 86 86" fill="none" xmlns="http://www.w3.org/2000/svg">
<path d="M26.8756 31.3327C28.119 29.9638 30.1544 28.6667 33.1464 28.6667C37.2744 28.6667 39.9333 31.5047 40.8685 34.6186C41.7751 37.6537 41.2269 41.409 38.6469 43.9997C37.752 44.86 36.8029 45.6619 35.8053 46.4006L35.6619 46.5117C34.6586 47.2857 33.7628 47.988 32.9744 48.7692C32.0607 49.6865 31.3118 50.6862 30.8782 51.9583H38.5214C39.2342 51.9583 39.9178 52.2415 40.4218 52.7455C40.9258 53.2495 41.2089 53.9331 41.2089 54.6458C41.2089 55.3586 40.9258 56.0422 40.4218 56.5462C39.9178 57.0502 39.2342 57.3333 38.5214 57.3333H27.7714C27.0587 57.3333 26.3751 57.0502 25.8711 56.5462C25.3671 56.0422 25.0839 55.3586 25.0839 54.6458C25.0839 50.1774 26.9616 47.1817 29.1833 44.9672C30.2439 43.9066 31.3978 43.0143 32.3724 42.2582L32.3832 42.2511C33.408 41.4592 34.2035 40.8428 34.8378 40.2086C35.8124 39.2267 36.1529 37.6107 35.7193 36.1594C35.3072 34.7942 34.3934 34.0417 33.1464 34.0417C31.8815 34.0417 31.2294 34.5326 30.8531 34.9482C30.633 35.1912 30.4538 35.4683 30.3228 35.7688V35.7796C30.1032 36.4581 29.6231 37.0217 28.9881 37.3463C28.353 37.6708 27.6151 37.7299 26.9365 37.5103C26.258 37.2908 25.6944 36.8107 25.3698 36.1756C25.0452 35.5406 24.9862 34.8026 25.2058 34.1241L25.3312 33.7801C25.6994 32.8813 26.2207 32.0532 26.872 31.3327H26.8756Z" fill="white"/>
<path d="M47.4795 28.6667C48.1923 28.6667 48.8758 28.9498 49.3798 29.4538C49.8838 29.9578 50.167 30.6414 50.167 31.3542V41.2083H55.542V31.3542C55.542 30.6414 55.8251 29.9578 56.3291 29.4538C56.8332 28.9498 57.5167 28.6667 58.2295 28.6667C58.9423 28.6667 59.6258 28.9498 60.1298 29.4538C60.6339 29.9578 60.917 30.6414 60.917 31.3542V54.5383C60.917 55.2511 60.6339 55.9347 60.1298 56.4387C59.6258 56.9427 58.9423 57.2258 58.2295 57.2258C57.5167 57.2258 56.8332 56.9427 56.3291 56.4387C55.8251 55.9347 55.542 55.2511 55.542 54.5383V46.5833H47.4795C46.7667 46.5833 46.0831 46.3002 45.5791 45.7962C45.0751 45.2922 44.792 44.6086 44.792 43.8958V31.3542C44.792 30.6414 45.0751 29.9578 45.5791 29.4538C46.0831 28.9498 46.7667 28.6667 47.4795 28.6667Z" fill="white"/>
<path d="M78.8337 43C78.8337 23.2092 62.7911 7.16666 43.0003 7.16666C23.2096 7.16666 7.16699 23.2092 7.16699 43C7.16699 62.7907 23.2096 78.8333 43.0003 78.8333C62.7911 78.8333 78.8337 62.7907 78.8337 43ZM12.542 43C12.542 34.9219 15.751 27.1747 21.463 21.4627C27.1751 15.7507 34.9223 12.5417 43.0003 12.5417C51.0784 12.5417 58.8256 15.7507 64.5376 21.4627C70.2497 27.1747 73.4587 34.9219 73.4587 43C73.4587 51.078 70.2497 58.8252 64.5376 64.5373C58.8256 70.2493 51.0784 73.4583 43.0003 73.4583C34.9223 73.4583 27.1751 70.2493 21.463 64.5373C15.751 58.8252 12.542 51.078 12.542 43Z" fill="white"/>
</svg>
