<svg width="68" height="68" viewBox="0 0 68 68" fill="none" xmlns="http://www.w3.org/2000/svg">
<g clip-path="url(#clip0)">
<path d="M28.6895 45.9531C29.423 45.9531 30.0176 45.3585 30.0176 44.625C30.0176 43.8915 29.423 43.2969 28.6895 43.2969C27.9559 43.2969 27.3613 43.8915 27.3613 44.625C27.3613 45.3585 27.9559 45.9531 28.6895 45.9531Z" fill="white"/>
<path d="M5.31445 18.0625V23.375C5.31445 24.1085 5.90905 24.7031 6.64258 24.7031H45.0254C45.7588 24.7031 46.3535 24.1085 46.3535 23.375V18.0625C46.3535 17.329 45.7588 16.7344 45.0254 16.7344H6.64258C5.90905 16.7344 5.31445 17.329 5.31445 18.0625ZM19.3926 19.3906H43.6973V22.0469H19.3926V19.3906ZM7.9707 19.3906H16.7363V22.0469H7.9707V19.3906Z" fill="white"/>
<path d="M6.64258 30.0156H45.0254C45.7588 30.0156 46.3535 29.421 46.3535 28.6875C46.3535 27.954 45.7588 27.3594 45.0254 27.3594H6.64258C5.90905 27.3594 5.31445 27.954 5.31445 28.6875C5.31445 29.421 5.90905 30.0156 6.64258 30.0156Z" fill="white"/>
<path d="M6.64258 35.3281H45.0254C45.7588 35.3281 46.3535 34.7335 46.3535 34C46.3535 33.2665 45.7588 32.6719 45.0254 32.6719H6.64258C5.90905 32.6719 5.31445 33.2665 5.31445 34C5.31445 34.7335 5.90905 35.3281 6.64258 35.3281Z" fill="white"/>
<path d="M6.64258 40.6406H28.6895C29.423 40.6406 30.0176 40.046 30.0176 39.3125C30.0176 38.579 29.423 37.9844 28.6895 37.9844H6.64258C5.90905 37.9844 5.31445 38.579 5.31445 39.3125C5.31445 40.046 5.90905 40.6406 6.64258 40.6406Z" fill="white"/>
<path d="M6.64258 45.9531H23.377C24.1105 45.9531 24.7051 45.3585 24.7051 44.625C24.7051 43.8915 24.1105 43.2969 23.377 43.2969H6.64258C5.90905 43.2969 5.31445 43.8915 5.31445 44.625C5.31445 45.3585 5.90905 45.9531 6.64258 45.9531Z" fill="white"/>
<path d="M18.0645 56.5781H24.8387C25.4557 59.6056 28.1387 61.8906 31.3457 61.8906C35.0073 61.8906 37.9863 58.9116 37.9863 55.25C37.9863 51.5884 35.0073 48.6094 31.3457 48.6094C28.1388 48.6094 25.4557 50.8944 24.8387 53.9219H18.0645C17.3309 53.9219 16.7363 54.5165 16.7363 55.25C16.7363 55.9835 17.3309 56.5781 18.0645 56.5781ZM31.3457 53.9219H27.5898C28.138 52.3761 29.6142 51.2656 31.3457 51.2656C33.5427 51.2656 35.3301 53.053 35.3301 55.25C35.3301 57.447 33.5427 59.2344 31.3457 59.2344C29.6144 59.2344 28.138 58.1239 27.5898 56.5781H31.3457C32.0791 56.5781 32.6738 55.9835 32.6738 55.25C32.6738 54.5165 32.0792 53.9219 31.3457 53.9219Z" fill="white"/>
<path d="M45.0254 10.625C45.7588 10.625 46.3535 10.0304 46.3535 9.29688C46.3535 8.56335 45.7588 7.96875 45.0254 7.96875H42.3691C41.6357 7.96875 41.041 8.56335 41.041 9.29688C41.041 10.0304 41.6357 10.625 42.3691 10.625H45.0254Z" fill="white"/>
<path d="M37.0566 10.625C37.79 10.625 38.3848 10.0304 38.3848 9.29688C38.3848 8.56335 37.79 7.96875 37.0566 7.96875H34.4004C33.667 7.96875 33.0723 8.56335 33.0723 9.29688C33.0723 10.0304 33.667 10.625 34.4004 10.625H37.0566Z" fill="white"/>
<path d="M29.0879 10.625C29.8214 10.625 30.416 10.0304 30.416 9.29688C30.416 8.56335 29.8214 7.96875 29.0879 7.96875H26.4316C25.6981 7.96875 25.1035 8.56335 25.1035 9.29688C25.1035 10.0304 25.6981 10.625 26.4316 10.625H29.0879Z" fill="white"/>
<path d="M26.0332 68C26.7667 68 27.3613 67.4054 27.3613 66.6719C27.3613 65.9384 26.7667 65.3438 26.0332 65.3438C25.2997 65.3438 24.7051 65.9384 24.7051 66.6719C24.7051 67.4054 25.2997 68 26.0332 68Z" fill="white"/>
<path d="M1.33105 68H20.0576C20.7911 68 21.3857 67.4054 21.3857 66.6719C21.3857 65.9384 20.7911 65.3438 20.0576 65.3438H2.65918V13.2812H11.9561C12.6896 13.2812 13.2842 12.6866 13.2842 11.9531V2.65625H49.0107V40.196C48.4083 40.9088 47.8457 41.5346 47.359 42.034L44.5433 39.2183C41.9488 36.6221 37.7469 36.6209 35.1515 39.2181L33.2735 41.096C32.7549 41.6147 32.7549 42.4556 33.2735 42.9743L49.0106 58.7114V65.3438H32.0106C31.2771 65.3438 30.6825 65.9384 30.6825 66.6719C30.6825 67.4054 31.2771 68 32.0106 68H50.3387C51.0721 68 51.6669 67.4054 51.6669 66.6719V61.3676L52.0559 61.7566C52.5745 62.2749 53.4156 62.2752 53.9342 61.7566L55.8122 59.8787C58.4071 57.2838 58.4076 53.0825 55.8122 50.4872L52.997 47.6719C55.5163 45.2171 61.0579 41.1396 63.9695 39.8715C68.0565 38.0925 69.5312 32.5357 66.0442 29.0487C62.5835 25.5863 57.0515 26.9932 55.2391 31.0918C54.5594 32.6279 53.1512 34.7877 51.667 36.8116V1.32812C51.667 0.594602 51.0723 0 50.3389 0H11.9561C11.5939 0 11.2535 0.152734 11.0169 0.389008L0.391937 11.014C0.15168 11.2537 0.00292969 11.5927 0.00292969 11.9531V66.6719C0.00292969 67.4054 0.597531 68 1.33105 68ZM53.9338 52.3654C55.4908 53.9223 55.4911 56.4432 53.9338 58.0004L52.9951 58.9393L36.091 42.0352L37.0301 41.096C38.587 39.5384 41.1071 39.5376 42.6648 41.0963L53.9338 52.3654ZM51.3799 41.5043C53.6815 38.7284 56.5186 34.7645 57.6683 32.1664C58.7006 29.8319 61.9815 28.7416 64.1658 30.9269C66.3511 33.1121 65.241 36.4212 62.9092 37.4361C59.6044 38.8755 53.8524 43.1205 51.1186 45.7935L49.2373 43.9122C49.867 43.2679 50.6026 42.442 51.3799 41.5043ZM10.6279 4.53448V10.625H4.53741L10.6279 4.53448Z" fill="white"/>
</g>
<defs>
<clipPath id="clip0">
<rect width="68" height="68" fill="white"/>
</clipPath>
</defs>
</svg>
