<svg width="67" height="67" viewBox="0 0 67 67" fill="none" xmlns="http://www.w3.org/2000/svg">
<g clip-path="url(#clip0)">
<path fill-rule="evenodd" clip-rule="evenodd" d="M64.739 37.2436L29.8445 2.2822C26.7458 -0.816554 21.6077 -0.707678 18.3708 2.53763L17.9981 2.91032L17.8557 2.76795C14.2754 -0.816554 8.32077 -0.669991 4.5562 3.09876L3.48839 4.17076C-0.276172 7.93532 -0.418547 13.8983 3.16177 17.4828L3.30833 17.6294L2.61739 18.3245C-0.619547 21.5614 -0.736797 26.7079 2.36614 29.815L37.2606 64.7764C40.3593 67.8794 45.5058 67.7663 48.7343 64.5252L64.4919 48.7383C67.733 45.493 67.8419 40.3508 64.739 37.2436ZM14.3759 21.641C10.7495 21.641 7.81408 18.5674 7.8057 14.7693C7.8057 10.9754 10.7495 7.90182 14.3759 7.90182C18.0023 7.90182 20.9251 10.9796 20.9377 14.7693C20.9251 18.5674 17.9939 21.641 14.3759 21.641ZM52.0676 54.7599L47.5283 50.2165C44.7981 52.1553 41.3769 52.7667 38.3828 51.7324C38.0414 51.6182 37.7269 51.4357 37.4583 51.1959C37.1898 50.9562 36.9729 50.6643 36.8209 50.3379C36.6615 50.0022 36.5719 49.6376 36.5575 49.2662C36.5431 48.8948 36.6042 48.5243 36.7371 48.1772C36.9955 47.4832 37.5131 46.9164 38.1808 46.5962C38.8486 46.276 39.6145 46.2273 40.3175 46.4603C41.3141 46.8037 42.4531 46.6571 43.5041 46.1756L38.2572 40.9077C34.2665 43.7636 28.9651 43.6798 25.7282 40.4513C22.4703 37.1976 22.3991 31.8794 25.2927 27.8971L20.8456 23.4458L23.4795 20.8119L27.956 25.2716C30.7113 23.3411 34.1367 22.7298 37.135 23.7683C37.4805 23.8885 37.7983 24.0772 38.0693 24.323C38.3403 24.5689 38.5589 24.8668 38.7122 25.1991C38.8654 25.5313 38.9501 25.8911 38.9611 26.2568C38.9722 26.6225 38.9094 26.9867 38.7765 27.3276C38.5113 28.0183 37.9912 28.5809 37.3236 28.8995C36.6559 29.2181 35.8915 29.2685 35.1878 29.0403C34.1911 28.6928 33.0605 28.8351 32.0136 29.3041L37.2983 34.5678C41.2638 31.7831 46.5024 31.8962 49.7142 35.1038C52.926 38.3156 53.0516 43.5333 50.2711 47.4779L54.7936 51.9836L52.0676 54.7599Z" fill="#F5F5F5"/>
<path fill-rule="evenodd" clip-rule="evenodd" d="M29.8317 36.5234C30.954 37.6414 32.7546 37.7587 34.3584 36.9714L29.3837 31.9757C28.5922 33.5879 28.7053 35.3969 29.8317 36.5234Z" fill="#F5F5F5"/>
<path fill-rule="evenodd" clip-rule="evenodd" d="M45.744 39.1573C44.6636 38.0727 42.9467 37.9345 41.3848 38.638L46.2674 43.5039C46.9667 41.9504 46.8243 40.2335 45.744 39.1573Z" fill="#F5F5F5"/>
</g>
<defs>
<clipPath id="clip0">
<rect width="67" height="67" fill="white"/>
</clipPath>
</defs>
</svg>
