                        <svg width="70" height="64" viewBox="0 0 70 64" fill="none" xmlns="http://www.w3.org/2000/svg">
                            <path
                                d="M66.6542 21.672C66.249 21.6736 65.8488 21.5838 65.4841 21.4095L34.7425 5.92593L4.00082 21.3046C3.3449 21.6108 2.59256 21.6474 1.90932 21.4062C1.22607 21.165 0.667888 20.6659 0.357559 20.0186C0.0472296 19.3713 0.0101756 18.6289 0.254547 17.9546C0.498919 17.2804 1.0047 16.7295 1.66062 16.4233L34.7425 0.257355L67.8243 16.4233C68.5217 16.5841 69.1268 17.0094 69.5086 17.6073C69.8904 18.2051 70.0182 18.9274 69.8644 19.6175C69.7105 20.3077 69.2873 20.9103 68.6865 21.2948C68.0857 21.6794 67.3556 21.8148 66.6542 21.672ZM21.4459 47.9153H5.49003V63.6614H21.4459V47.9153ZM42.7204 47.9153H26.7645V63.6614H42.7204V47.9153ZM63.9949 47.9153H48.039V63.6614H63.9949V47.9153ZM53.3577 26.9206H37.4018V42.6667H53.3577V26.9206ZM32.0832 26.9206H16.1273V42.6667H32.0832V26.9206Z"
                                fill="white" />
                        </svg>